<?xml version="1.0" encoding="utf-8"?>
<!-- Generator: Adobe Illustrator 17.0.0, SVG Export Plug-In . SVG Version: 6.00 Build 0)  -->
<!DOCTYPE svg PUBLIC "-//W3C//DTD SVG 1.1//EN" "http://www.w3.org/Graphics/SVG/1.1/DTD/svg11.dtd">
<svg version="1.1" xmlns="http://www.w3.org/2000/svg" xmlns:xlink="http://www.w3.org/1999/xlink" x="0px" y="0px" width="32px"
	 height="32px" viewBox="0 0 32 32" fill="#787878" enable-background="new 0 0 32 32" xml:space="preserve">
<g id="Layer_1">
	<g>
		<g>
			<path d="M31.092,23.396L20.633,3.481c-1.176-2.244-2.821-3.48-4.632-3.48c-1.809,0-3.453,1.234-4.632,3.476L0.91,23.398
				c-1.138,2.168-1.215,4.272-0.216,5.924c1.029,1.702,3.119,2.679,5.733,2.679h19.149c2.614,0,4.703-0.977,5.732-2.68
				C32.308,27.67,32.23,25.564,31.092,23.396z M29.598,28.287c-0.658,1.089-2.123,1.714-4.021,1.714H6.428
				c-1.897,0-3.363-0.625-4.022-1.714c-0.622-1.029-0.523-2.435,0.276-3.959L13.14,4.406c0.804-1.528,1.847-2.405,2.861-2.405
				c1.016,0,2.059,0.878,2.86,2.409L29.32,24.325C30.122,25.851,30.22,27.258,29.598,28.287z"/>
		</g>
		<g>
			<path d="M16.001,20.001c1.1,0,2.064-0.898,2.143-1.996l0.717-9.013C18.938,7.898,18.102,7,17.001,7h-2
				c-1.098,0-1.934,0.898-1.855,1.992l0.713,9.013C13.936,19.103,14.901,20.001,16.001,20.001z M14.364,8.267
				C14.524,8.095,14.75,8,15.001,8h2c0.252,0,0.48,0.095,0.641,0.268c0.16,0.172,0.239,0.404,0.221,0.652l-0.717,9.013
				c-0.041,0.579-0.566,1.067-1.145,1.067c-0.58,0-1.104-0.489-1.145-1.067l-0.713-9.013C14.125,8.672,14.203,8.44,14.364,8.267z"/>
		</g>
		<g>
			<path d="M16.001,22.001c-1.656,0-3,1.344-3,3s1.344,3,3,3c1.658,0,3-1.344,3-3S17.659,22.001,16.001,22.001z M16.001,27.001
				c-1.103,0-2-0.897-2-2c0-1.103,0.897-2,2-2s2,0.897,2,2C18.001,26.104,17.103,27.001,16.001,27.001z"/>
		</g>
	</g>
</g>
<g id="nyt_x5F_exporter_x5F_info" display="none">
</g>
</svg>
