<?xml version="1.0" encoding="utf-8"?>
<!-- Generator: Adobe Illustrator 17.0.0, SVG Export Plug-In . SVG Version: 6.00 Build 0)  -->
<!DOCTYPE svg PUBLIC "-//W3C//DTD SVG 1.1//EN" "http://www.w3.org/Graphics/SVG/1.1/DTD/svg11.dtd">
<svg version="1.1" xmlns="http://www.w3.org/2000/svg" xmlns:xlink="http://www.w3.org/1999/xlink" x="0px" y="0px" width="32px"
	 height="32px" viewBox="0 0 32 32" fill="#787878" enable-background="new 0 0 32 32" xml:space="preserve">
<g id="Layer_3">
	<g>
		<g>
			<path d="M21.583,7.011c-0.049-0.315-0.245-0.588-0.527-0.735C19.425,5.43,17.724,5,16.001,5h-0.004
				C9.934,5,5.001,9.935,5.001,16.002c0,1.727,0.43,3.427,1.277,5.052c0.147,0.282,0.42,0.478,0.735,0.526
				c0.051,0.008,0.101,0.012,0.152,0.012c0.263,0,0.518-0.104,0.707-0.293l13.43-13.428C21.527,7.646,21.632,7.326,21.583,7.011z
				 M7.165,20.592c-0.734-1.408-1.164-2.959-1.164-4.59C6.001,10.486,10.486,6,15.997,6h0.004c1.633,0,3.184,0.432,4.594,1.164
				L7.165,20.592z"/>
		</g>
		<g>
			<path d="M25.724,10.945c-0.147-0.283-0.42-0.478-0.735-0.527c-0.051-0.008-0.102-0.012-0.152-0.012
				c-0.263,0-0.518,0.104-0.707,0.293L10.7,24.129c-0.225,0.225-0.33,0.544-0.281,0.859c0.048,0.315,0.244,0.588,0.526,0.735
				C12.573,26.57,14.273,27,15.999,27c2.938,0,5.701-1.144,7.779-3.223c2.078-2.078,3.223-4.841,3.223-7.779
				C27.001,14.274,26.571,12.573,25.724,10.945z M23.071,23.07c-1.889,1.889-4.4,2.93-7.072,2.93c-1.633,0-3.186-0.432-4.592-1.164
				l13.43-13.43c0.733,1.408,1.164,2.959,1.164,4.592C26.001,18.67,24.96,21.182,23.071,23.07z"/>
		</g>
		<g>
			<path d="M16,0C7.162,0,0,7.162,0,16c0,8.838,7.162,16,16,16c8.836,0,16-7.162,16-16C32,7.162,24.836,0,16,0z M16,30
				C8.28,30,2,23.72,2,16C2,8.28,8.28,2,16,2s14,6.28,14,14C30,23.72,23.72,30,16,30z"/>
		</g>
	</g>
</g>
<g id="nyt_x5F_exporter_x5F_info" display="none">
	<text transform="matrix(1 0 0 1 -384 0)" display="inline"><tspan x="0" y="0" font-family="'MyriadPro-Regular'" font-size="12">&lt;nyt_prefs&gt;</tspan><tspan x="0" y="14.4" font-family="'MyriadPro-Regular'" font-size="12">  &lt;nyt_prefix&gt;&lt;/nyt_prefix&gt;</tspan><tspan x="0" y="28.8" font-family="'MyriadPro-Regular'" font-size="12">  &lt;nyt_suffix&gt;&lt;/nyt_suffix&gt;</tspan><tspan x="0" y="43.2" font-family="'MyriadPro-Regular'" font-size="12">  &lt;nyt_base_path&gt;~/Dropbox/Work/Symbolicons/Icon%20Sets/Symbolicons%20Air/pdf&lt;/nyt_base_path&gt;</tspan><tspan x="0" y="57.6" font-family="'MyriadPro-Regular'" font-size="12">  &lt;nyt_scaling&gt;200&lt;/nyt_scaling&gt;</tspan><tspan x="0" y="72" font-family="'MyriadPro-Regular'" font-size="12">  &lt;nyt_transparency&gt;true&lt;/nyt_transparency&gt;</tspan><tspan x="0" y="86.4" font-family="'MyriadPro-Regular'" font-size="12">  &lt;nyt_format&gt;PDF&lt;/nyt_format&gt;</tspan><tspan x="0" y="100.8" font-family="'MyriadPro-Regular'" font-size="12">  &lt;nyt_export_code&gt;artboards&lt;/nyt_export_code&gt;</tspan><tspan x="0" y="115.2" font-family="'MyriadPro-Regular'" font-size="12">&lt;/nyt_prefs&gt;</tspan></text>
</g>
</svg>
