<?xml version="1.0" encoding="utf-8"?>
<!-- Generator: Adobe Illustrator 17.0.0, SVG Export Plug-In . SVG Version: 6.00 Build 0)  -->
<!DOCTYPE svg PUBLIC "-//W3C//DTD SVG 1.1//EN" "http://www.w3.org/Graphics/SVG/1.1/DTD/svg11.dtd">
<svg version="1.1"  fill="#787878" xmlns="http://www.w3.org/2000/svg" xmlns:xlink="http://www.w3.org/1999/xlink" x="0px" y="0px" width="32px"
	 height="32px" viewBox="0 0 32 32" enable-background="new 0 0 32 32" xml:space="preserve">
<g id="Layer_3">
	<g>
		<g>
			<path d="M12,2h11l-6,8h9l-5.173,5.173l1.414,1.414l5.173-5.173c0.572-0.572,0.743-1.432,0.434-2.18S26.809,8,26,8h-5l3.6-4.8
				c0.455-0.606,0.528-1.417,0.189-2.094C24.45,0.428,23.758,0,23,0H12c-0.78,0-1.489,0.454-1.816,1.162L9.121,3.466l1.507,1.507
				L12,2z"/>
		</g>
		<g>
			<path d="M6,30l6.38-11.962L9.342,15H6l1.055-2.286l-1.507-1.507l-1.364,2.955c-0.286,0.619-0.236,1.341,0.131,1.916
				C4.683,16.652,5.318,17,6,17h4.667L4.235,29.059c-0.466,0.874-0.222,1.958,0.574,2.548C5.165,31.871,5.583,32,6,32
				c0.515,0,1.027-0.198,1.415-0.586l9.171-9.171l-1.414-1.414L6,30z"/>
		</g>
		<g>
			<path d="M31.707,30.295l-30-30c-0.391-0.391-1.023-0.391-1.414,0s-0.391,1.023,0,1.414l30,30
				c0.195,0.195,0.451,0.293,0.707,0.293s0.512-0.098,0.707-0.293C32.098,31.318,32.098,30.686,31.707,30.295z"/>
		</g>
	</g>
</g>
<g id="nyt_x5F_exporter_x5F_info" display="none">
</g>
</svg>
