<?xml version="1.0" encoding="utf-8"?>
<!-- Generator: Adobe Illustrator 17.0.0, SVG Export Plug-In . SVG Version: 6.00 Build 0)  -->
<!DOCTYPE svg PUBLIC "-//W3C//DTD SVG 1.1//EN" "http://www.w3.org/Graphics/SVG/1.1/DTD/svg11.dtd">
<svg version="1.1" xmlns="http://www.w3.org/2000/svg" xmlns:xlink="http://www.w3.org/1999/xlink" x="0px" y="0px" width="32px"
	 height="32px" viewBox="0 0 32 32" fill="#787878" enable-background="new 0 0 32 32" xml:space="preserve">
<g id="Layer_1">
	<g>
		<path d="M16,0C7.163,0,0,7.163,0,16s7.163,16,16,16s16-7.163,16-16S24.837,0,16,0z M16,2c3.501,0,6.697,1.3,9.154,3.432
			l-4.968,4.968C19.018,9.524,17.572,9,16,9s-3.018,0.524-4.187,1.399L6.846,5.432C9.303,3.3,12.499,2,16,2z M22,16
			c0,3.314-2.686,6-6,6s-6-2.686-6-6s2.686-6,6-6S22,12.686,22,16z M2,16c0-3.501,1.3-6.697,3.432-9.154l4.968,4.968
			C9.524,12.982,9,14.428,9,16c0,1.572,0.524,3.018,1.399,4.187l-4.968,4.968C3.3,22.697,2,19.501,2,16z M16,30
			c-3.501,0-6.697-1.3-9.154-3.432l4.968-4.968C12.982,22.476,14.428,23,16,23s3.018-0.524,4.187-1.399l4.968,4.968
			C22.697,28.7,19.501,30,16,30z M26.568,25.154l-4.968-4.968C22.476,19.018,23,17.572,23,16c0-1.572-0.524-3.018-1.399-4.187
			l4.968-4.968C28.7,9.303,30,12.499,30,16S28.7,22.697,26.568,25.154z"/>
	</g>
</g>
<g id="nyt_x5F_exporter_x5F_info" display="none">
	<text transform="matrix(1 0 0 1 -512 -64)" display="inline"><tspan x="0" y="0" font-family="'MyriadPro-Regular'" font-size="12">&lt;nyt_prefs&gt;</tspan><tspan x="0" y="14.4" font-family="'MyriadPro-Regular'" font-size="12">  &lt;nyt_prefix&gt;&lt;/nyt_prefix&gt;</tspan><tspan x="0" y="28.8" font-family="'MyriadPro-Regular'" font-size="12">  &lt;nyt_suffix&gt;&lt;/nyt_suffix&gt;</tspan><tspan x="0" y="43.2" font-family="'MyriadPro-Regular'" font-size="12">  &lt;nyt_base_path&gt;~/Dropbox/Work/Symbolicons/Icon%20Sets/Symbolicons%20Air/pdf&lt;/nyt_base_path&gt;</tspan><tspan x="0" y="57.6" font-family="'MyriadPro-Regular'" font-size="12">  &lt;nyt_scaling&gt;100&lt;/nyt_scaling&gt;</tspan><tspan x="0" y="72" font-family="'MyriadPro-Regular'" font-size="12">  &lt;nyt_transparency&gt;true&lt;/nyt_transparency&gt;</tspan><tspan x="0" y="86.4" font-family="'MyriadPro-Regular'" font-size="12">  &lt;nyt_format&gt;PDF&lt;/nyt_format&gt;</tspan><tspan x="0" y="100.8" font-family="'MyriadPro-Regular'" font-size="12">  &lt;nyt_export_code&gt;artboards&lt;/nyt_export_code&gt;</tspan><tspan x="0" y="115.2" font-family="'MyriadPro-Regular'" font-size="12">&lt;/nyt_prefs&gt;</tspan></text>
</g>
</svg>
