<?xml version="1.0" encoding="utf-8"?>
<!-- Generator: Adobe Illustrator 17.0.0, SVG Export Plug-In . SVG Version: 6.00 Build 0)  -->
<!DOCTYPE svg PUBLIC "-//W3C//DTD SVG 1.1//EN" "http://www.w3.org/Graphics/SVG/1.1/DTD/svg11.dtd">
<svg version="1.1" xmlns="http://www.w3.org/2000/svg" xmlns:xlink="http://www.w3.org/1999/xlink" x="0px" y="0px" width="32px"
	 height="32px" viewBox="0 0 32 32" fill="#787878" enable-background="new 0 0 32 32" xml:space="preserve">
<g id="Layer_1">
	<g>
		<g>
			<path d="M16.001,0c-4.971,0-9,4.029-9,9c0,4.632,3.5,8.443,7.999,8.941V31c0,0.552,0.448,1,1,1s1-0.448,1-1V17.942
				c4.5-0.497,8.001-4.309,8.001-8.942C25.001,4.029,20.972,0,16.001,0z M16.001,16c-3.86,0-7-3.14-7-7s3.14-7,7-7s7,3.14,7,7
				S19.861,16,16.001,16z"/>
		</g>
		<g>
			<path d="M16.001,3c-1.656,0-3,1.344-3,3s1.344,3,3,3c1.656,0,3-1.344,3-3S17.657,3,16.001,3z M16.001,8c-1.103,0-2-0.897-2-2
				s0.897-2,2-2s2,0.897,2,2S17.104,8,16.001,8z"/>
		</g>
	</g>
</g>
<g id="nyt_x5F_exporter_x5F_info" display="none">
	<text transform="matrix(1 0 0 1 -256 0)" display="inline"><tspan x="0" y="0" font-family="'MyriadPro-Regular'" font-size="12">&lt;nyt_prefs&gt;</tspan><tspan x="0" y="14.4" font-family="'MyriadPro-Regular'" font-size="12">  &lt;nyt_prefix&gt;&lt;/nyt_prefix&gt;</tspan><tspan x="0" y="28.8" font-family="'MyriadPro-Regular'" font-size="12">  &lt;nyt_suffix&gt;&lt;/nyt_suffix&gt;</tspan><tspan x="0" y="43.2" font-family="'MyriadPro-Regular'" font-size="12">  &lt;nyt_base_path&gt;~/Dropbox/Work/Symbolicons/Icon%20Sets/Symbolicons%20Air/pdf&lt;/nyt_base_path&gt;</tspan><tspan x="0" y="57.6" font-family="'MyriadPro-Regular'" font-size="12">  &lt;nyt_scaling&gt;100&lt;/nyt_scaling&gt;</tspan><tspan x="0" y="72" font-family="'MyriadPro-Regular'" font-size="12">  &lt;nyt_transparency&gt;true&lt;/nyt_transparency&gt;</tspan><tspan x="0" y="86.4" font-family="'MyriadPro-Regular'" font-size="12">  &lt;nyt_format&gt;PDF&lt;/nyt_format&gt;</tspan><tspan x="0" y="100.8" font-family="'MyriadPro-Regular'" font-size="12">  &lt;nyt_export_code&gt;artboards&lt;/nyt_export_code&gt;</tspan><tspan x="0" y="115.2" font-family="'MyriadPro-Regular'" font-size="12">&lt;/nyt_prefs&gt;</tspan></text>
</g>
</svg>
