<?xml version="1.0" encoding="utf-8"?>
<!-- Generator: Adobe Illustrator 17.0.0, SVG Export Plug-In . SVG Version: 6.00 Build 0)  -->
<!DOCTYPE svg PUBLIC "-//W3C//DTD SVG 1.1//EN" "http://www.w3.org/Graphics/SVG/1.1/DTD/svg11.dtd">
<svg version="1.1" xmlns="http://www.w3.org/2000/svg" xmlns:xlink="http://www.w3.org/1999/xlink" x="0px" y="0px" width="32px"
	 height="32px" viewBox="0 0 32 32" fill="#787878" enable-background="new 0 0 32 32" xml:space="preserve">
<g id="Layer_1">
	<g>
		<path d="M28.319,19.49C28.761,18.739,29,17.883,29,17c0-2.42-1.728-4.444-4.015-4.903c0.065-1.02-0.22-2.034-0.836-2.901
			c-1.217-1.716-3.491-2.661-6.404-2.661c-0.094,0-0.188,0.001-0.284,0.003c-0.255-0.004-1.113-0.121-1.357-0.595
			c-0.111-0.217-0.352-1.101,1.231-3.371c0.245-0.352,0.239-0.82-0.015-1.166C17.129,1.146,16.828,1,16.516,1
			c-0.101,0-0.204,0.015-0.304,0.047c-0.252,0.08-6.193,2.018-8.394,6.345C7.068,8.869,6.837,10.44,7.13,12.076
			C4.786,12.489,3,14.54,3,17c0,0.883,0.239,1.739,0.681,2.49C1.499,20.4,0,22.539,0,25c0,3.308,2.692,6,6,6h20c3.308,0,6-2.692,6-6
			C32,22.539,30.501,20.4,28.319,19.49z M26,29H6c-2.206,0-4-1.794-4-4c0-2.206,1.794-4,4-4h20c2.206,0,4,1.794,4,4
			C30,27.206,28.206,29,26,29z M8,14h16c1.654,0,3,1.346,3,3c0,1.654-1.346,3-3,3H8c-1.654,0-3-1.346-3-3C5,15.346,6.346,14,8,14z
			 M14.278,4.067c-0.372,1.096-0.352,2.024,0.056,2.805c0.843,1.616,2.906,1.666,3.168,1.666c0.001,0,0.001,0,0.002,0
			c0.082-0.002,0.163-0.003,0.243-0.003c2.415,0,4.273,0.799,4.971,2.138c0.38,0.729,0.374,1.556-0.006,2.326H9.45
			c-0.604-1.578-0.604-3.021-0.003-4.394C10.369,6.501,12.532,4.993,14.278,4.067z"/>
	</g>
</g>
<g id="nyt_x5F_exporter_x5F_info" display="none">
</g>
</svg>
