<?xml version="1.0" encoding="utf-8"?>
<!-- Generator: Adobe Illustrator 17.0.0, SVG Export Plug-In . SVG Version: 6.00 Build 0)  -->
<!DOCTYPE svg PUBLIC "-//W3C//DTD SVG 1.1//EN" "http://www.w3.org/Graphics/SVG/1.1/DTD/svg11.dtd">
<svg version="1.1" id="Layer_3" xmlns="http://www.w3.org/2000/svg" xmlns:xlink="http://www.w3.org/1999/xlink" x="0px" y="0px"
	 width="32px" height="32px" viewBox="0 0 32 32" fill="#787878" enable-background="new 0 0 32 32" xml:space="preserve">
<g>
	<path d="M32,17.406c0-0.72-0.24-1.41-0.671-1.98C31.76,14.855,32,14.165,32,13.445v-1.201c0-1.347-0.804-2.523-2-3.054V7.383
		c0-1.343-0.804-2.516-2-3.043V3.393C28,1.521,26.486,0,24.625,0H13c-1.812,0.091-4.189,0.697-6,1.639V0H0v20h5.465
		c1.83,2.878,2.468,7.535,2.536,8.065C8.036,30.241,9.816,32,12,32c2.206,0,4-1.794,4-4v-6h12.625C30.486,22,32,20.479,32,18.607
		V17.406z M6,18H2V2h4V18z M30,18.607C30,19.375,29.383,20,28.625,20H14v8c0,1.103-0.897,2-2,2s-2-0.897-2-2l-0.007-0.115
		C9.966,27.646,9.304,22.107,7,18.686V3.974c1.437-1.081,4.183-1.88,6.051-1.975L24.625,2C25.383,2,26,2.625,26,3.393v2.534
		l0.837,0.138C27.521,6.178,28,6.72,28,7.383v3.393l0.836,0.139C29.511,11.026,30,11.586,30,12.244v1.201
		c0,0.453-0.241,0.868-0.663,1.14l-1.303,0.841l1.303,0.841C29.759,16.538,30,16.953,30,17.406V18.607z"/>
</g>
</svg>
