<?xml version="1.0" encoding="iso-8859-1"?>
<!-- Generator: Adobe Illustrator 17.0.0, SVG Export Plug-In . SVG Version: 6.00 Build 0)  -->
<!DOCTYPE svg PUBLIC "-//W3C//DTD SVG 1.1//EN" "http://www.w3.org/Graphics/SVG/1.1/DTD/svg11.dtd">
<svg version="1.1" id="Layer_1" xmlns="http://www.w3.org/2000/svg" xmlns:xlink="http://www.w3.org/1999/xlink" x="0px" y="0px" fill="#fff"
	 width="32px" height="32px" viewBox="0 0 32 32" style="enable-background:new 0 0 32 32;" xml:space="preserve">
<g>
	<defs>
		<rect id="SVGID_1_" width="32" height="32"/>
	</defs>
	<clipPath id="SVGID_2_">
		<use xlink:href="#SVGID_1_"  style="overflow:visible;"/>
	</clipPath>
	<g style="clip-path:url(#SVGID_2_);">
		<defs>
			<rect id="SVGID_3_" width="32" height="32"/>
		</defs>
		<clipPath id="SVGID_4_">
			<use xlink:href="#SVGID_3_"  style="overflow:visible;"/>
		</clipPath>
		<path style="clip-path:url(#SVGID_4_);" d="M16.002,0H16C7.168,0,0.002,7.164,0,16c0,8.836,7.168,16,16,16c8.84,0,16-7.164,16-16
			S24.84,0,16.002,0 M16,28C9.383,28,4,22.617,4,16C4.002,9.383,9.385,4,16.002,4C22.617,4,28,9.383,28,16S22.617,28,16,28"/>
		<path style="clip-path:url(#SVGID_4_);" d="M8.932,23.07c0,0,7.07-1.414,9.898-4.242C21.66,16,23.074,8.93,23.074,8.93
			s-7.072,1.414-9.9,4.242S8.932,23.07,8.932,23.07 M14.588,14.586c0.781-0.781,2.049-0.781,2.828,0
			c0.781,0.781,0.783,2.047,0,2.828c-0.781,0.781-2.047,0.781-2.828,0S13.807,15.367,14.588,14.586"/>
	</g>
</g>
</svg>
