<?xml version="1.0" encoding="iso-8859-1"?>
<!-- Generator: Adobe Illustrator 17.0.0, SVG Export Plug-In . SVG Version: 6.00 Build 0)  -->
<!DOCTYPE svg PUBLIC "-//W3C//DTD SVG 1.1//EN" "http://www.w3.org/Graphics/SVG/1.1/DTD/svg11.dtd">
<svg version="1.1" id="Layer_1" xmlns="http://www.w3.org/2000/svg" xmlns:xlink="http://www.w3.org/1999/xlink" x="0px" y="0px" fill="#fff"
	 width="32px" height="32px" viewBox="0 0 32 32" style="enable-background:new 0 0 32 32;" xml:space="preserve">
<g>
	<defs>
		<rect id="SVGID_1_" width="32" height="32"/>
	</defs>
	<clipPath id="SVGID_2_">
		<use xlink:href="#SVGID_1_"  style="overflow:visible;"/>
	</clipPath>
	<g style="clip-path:url(#SVGID_2_);">
		<defs>
			<rect id="SVGID_3_" width="32" height="32"/>
		</defs>
		<clipPath id="SVGID_4_">
			<use xlink:href="#SVGID_3_"  style="overflow:visible;"/>
		</clipPath>
		<path style="clip-path:url(#SVGID_4_);" d="M0,22h32V12H0V22z M11,16h10c0.551,0,1,0.447,1,1s-0.449,1-1,1H11
			c-0.555,0-1-0.447-1-1S10.445,16,11,16"/>
		<path style="clip-path:url(#SVGID_4_);" d="M30,0H2C0.895,0,0,0.896,0,2v8h32V2C32,0.896,31.105,0,30,0 M21,6H11
			c-0.555,0-1-0.447-1-1s0.445-1,1-1h10c0.551,0,1,0.447,1,1S21.551,6,21,6"/>
		<path style="clip-path:url(#SVGID_4_);" d="M0,30c0,1.105,0.895,2,2,2h28c1.105,0,2-0.895,2-2v-6H0V30z"/>
	</g>
</g>
</svg>
