<?xml version="1.0" encoding="iso-8859-1"?>
<!-- Generator: Adobe Illustrator 17.0.0, SVG Export Plug-In . SVG Version: 6.00 Build 0)  -->
<!DOCTYPE svg PUBLIC "-//W3C//DTD SVG 1.1//EN" "http://www.w3.org/Graphics/SVG/1.1/DTD/svg11.dtd">
<svg version="1.1" id="Layer_1" xmlns="http://www.w3.org/2000/svg" xmlns:xlink="http://www.w3.org/1999/xlink" x="0px" y="0px" fill="#fff"
	 width="32px" height="32px" viewBox="0 0 32 32" style="enable-background:new 0 0 32 32;" xml:space="preserve">
<g>
	<defs>
		<rect id="SVGID_1_" width="32" height="32"/>
	</defs>
	<clipPath id="SVGID_2_">
		<use xlink:href="#SVGID_1_"  style="overflow:visible;"/>
	</clipPath>
	<g style="clip-path:url(#SVGID_2_);">
		<defs>
			<rect id="SVGID_3_" width="32" height="32"/>
		</defs>
		<clipPath id="SVGID_4_">
			<use xlink:href="#SVGID_3_"  style="overflow:visible;"/>
		</clipPath>
		<path style="clip-path:url(#SVGID_4_);" d="M32,13.705c0-4.473-3.766-9.703-8.391-9.703c-3.375,0-6.265,1.918-7.605,4.679
			c-1.34-2.761-4.238-4.679-7.602-4.679C3.766,4.001,0,9.232,0,13.705c0,0.34,0.064,0.68,0.107,1.023H0.098
			c0.998,8.723,14.256,16.864,14.256,16.864c0.908,0.554,2.384,0.543,3.285-0.024c0,0,13.236-8.375,14.261-16.84h-0.011
			C31.936,14.385,32,14.045,32,13.705"/>
	</g>
</g>
</svg>
