<?xml version="1.0" encoding="utf-8"?>
<!-- Generator: Adobe Illustrator 17.0.0, SVG Export Plug-In . SVG Version: 6.00 Build 0)  -->
<!DOCTYPE svg PUBLIC "-//W3C//DTD SVG 1.1//EN" "http://www.w3.org/Graphics/SVG/1.1/DTD/svg11.dtd">
<svg version="1.1" xmlns="http://www.w3.org/2000/svg" xmlns:xlink="http://www.w3.org/1999/xlink" x="0px" y="0px" width="32px"
	 height="32px" viewBox="0 0 32 32" enable-background="new 0 0 32 32" xml:space="preserve"  style="fill:#fff">
<g id="Layer_1">
	<g>
		<g>
			<path d="M16.003,0c-0.002,0,0,0-0.002,0c-8.832,0-15.998,7.164-16,16c0,8.836,7.168,16,16,16c8.84,0,16-7.164,16-16
				S24.841,0,16.003,0z M16.001,30c-7.72,0-14-6.28-14-14c0.002-7.72,6.282-14,14-14h0.002c7.719,0,13.998,6.28,13.998,14
				C30.001,23.72,23.721,30,16.001,30z"/>
		</g>
		<g>
			<path d="M12.468,12.465c-3.008,3.008-4.456,10.109-4.516,10.41l-0.294,1.471l1.471-0.294c0.301-0.06,7.402-1.508,10.409-4.516
				c3.01-3.008,4.457-10.109,4.518-10.41l0.294-1.471l-1.471,0.294C22.578,8.009,15.476,9.457,12.468,12.465z M18.831,18.828
				c-2.828,2.828-9.898,4.242-9.898,4.242s1.414-7.07,4.242-9.899c2.828-2.828,9.9-4.242,9.9-4.242S21.661,16,18.831,18.828z"/>
		</g>
		<g>
			<path d="M16.003,18.5c0.668,0,1.295-0.26,1.768-0.732s0.732-1.099,0.733-1.766c0-0.668-0.26-1.297-0.733-1.77
				c-0.941-0.945-2.59-0.945-3.535,0c-0.975,0.975-0.975,2.561,0,3.535C14.708,18.24,15.335,18.5,16.003,18.5z M14.942,14.939
				c0.283-0.283,0.66-0.439,1.062-0.439c0.4,0,0.776,0.156,1.06,0.439c0.284,0.284,0.44,0.662,0.44,1.062
				c-0.001,0.4-0.156,0.775-0.44,1.059c-0.566,0.566-1.555,0.566-2.121,0C14.357,16.476,14.357,15.524,14.942,14.939z"/>
		</g>
	</g>
</g>
<g id="nyt_x5F_exporter_x5F_info" display="none">
	<text display="inline"><tspan x="0" y="0" font-family="'MyriadPro-Regular'" font-size="12">&lt;nyt_prefs&gt;</tspan><tspan x="0" y="14.4" font-family="'MyriadPro-Regular'" font-size="12">  &lt;nyt_prefix&gt;&lt;/nyt_prefix&gt;</tspan><tspan x="0" y="28.8" font-family="'MyriadPro-Regular'" font-size="12">  &lt;nyt_suffix&gt;&lt;/nyt_suffix&gt;</tspan><tspan x="0" y="43.2" font-family="'MyriadPro-Regular'" font-size="12">  &lt;nyt_base_path&gt;~/Dropbox/Work/Symbolicons/Icon%20Sets/Symbolicons%20Air/pdf&lt;/nyt_base_path&gt;</tspan><tspan x="0" y="57.6" font-family="'MyriadPro-Regular'" font-size="12">  &lt;nyt_scaling&gt;100&lt;/nyt_scaling&gt;</tspan><tspan x="0" y="72" font-family="'MyriadPro-Regular'" font-size="12">  &lt;nyt_transparency&gt;true&lt;/nyt_transparency&gt;</tspan><tspan x="0" y="86.4" font-family="'MyriadPro-Regular'" font-size="12">  &lt;nyt_format&gt;PDF&lt;/nyt_format&gt;</tspan><tspan x="0" y="100.8" font-family="'MyriadPro-Regular'" font-size="12">  &lt;nyt_export_code&gt;artboards&lt;/nyt_export_code&gt;</tspan><tspan x="0" y="115.2" font-family="'MyriadPro-Regular'" font-size="12">&lt;/nyt_prefs&gt;</tspan></text>
</g>
</svg>
