<?xml version="1.0" encoding="utf-8"?>
<!-- Generator: Adobe Illustrator 17.0.0, SVG Export Plug-In . SVG Version: 6.00 Build 0)  -->
<!DOCTYPE svg PUBLIC "-//W3C//DTD SVG 1.1//EN" "http://www.w3.org/Graphics/SVG/1.1/DTD/svg11.dtd">
<svg version="1.1" xmlns="http://www.w3.org/2000/svg" xmlns:xlink="http://www.w3.org/1999/xlink" x="0px" y="0px" width="32px"
	 height="32px" viewBox="0 0 32 32" enable-background="new 0 0 32 32" xml:space="preserve" style="fill:#fff">
<g id="Layer_1">
	<g>
		<g>
			<path d="M4.001,12c-2.209,0-4,1.791-4,4c0,2.209,1.791,4,4,4s4-1.791,4-4C8.001,13.791,6.21,12,4.001,12z M4.001,18
				c-1.103,0-2-0.897-2-2c0-1.103,0.897-2,2-2s2,0.897,2,2C6.001,17.103,5.104,18,4.001,18z"/>
		</g>
		<g>
			<path d="M28.001,12c-2.209,0-4,1.791-4,4c0,2.209,1.791,4,4,4s4-1.791,4-4C32.001,13.791,30.21,12,28.001,12z M28.001,18
				c-1.103,0-2-0.897-2-2c0-1.103,0.897-2,2-2s2,0.897,2,2C30.001,17.103,29.104,18,28.001,18z"/>
		</g>
		<g>
			<path d="M16.001,12c-2.209,0-4,1.791-4,4c0,2.209,1.791,4,4,4s4-1.791,4-4C20.001,13.791,18.21,12,16.001,12z M16.001,18
				c-1.103,0-2-0.897-2-2c0-1.103,0.897-2,2-2s2,0.897,2,2C18.001,17.103,17.104,18,16.001,18z"/>
		</g>
	</g>
</g>
<g id="nyt_x5F_exporter_x5F_info" display="none">
</g>
</svg>
