<?xml version="1.0" encoding="utf-8"?>
<!-- Generator: Adobe Illustrator 17.0.0, SVG Export Plug-In . SVG Version: 6.00 Build 0)  -->
<!DOCTYPE svg PUBLIC "-//W3C//DTD SVG 1.1//EN" "http://www.w3.org/Graphics/SVG/1.1/DTD/svg11.dtd">
<svg version="1.1" id="Layer_3" xmlns="http://www.w3.org/2000/svg" xmlns:xlink="http://www.w3.org/1999/xlink" x="0px" y="0px"
	 width="32px" height="32px" viewBox="0 0 32 32" enable-background="new 0 0 32 32" xml:space="preserve" style="fill:#fff">
<g>
	<g>
		<path d="M29,0H3C1.346,0,0,1.346,0,3v26c0,1.654,1.346,3,3,3h26c1.654,0,3-1.346,3-3V3C32,1.346,30.654,0,29,0z M30,29
			c0,0.551-0.448,1-1,1H3c-0.552,0-1-0.449-1-1v-9h28V29z M30,19H2v-9h28V19z M30,9H2V3c0-0.551,0.448-1,1-1h26c0.552,0,1,0.449,1,1
			V9z"/>
	</g>
	<g>
		<path d="M19.5,5h-7C12.224,5,12,5.224,12,5.5S12.224,6,12.5,6h7C19.776,6,20,5.776,20,5.5S19.776,5,19.5,5z"/>
	</g>
	<g>
		<path d="M12.5,15h7c0.276,0,0.5-0.224,0.5-0.5S19.776,14,19.5,14h-7c-0.276,0-0.5,0.224-0.5,0.5S12.224,15,12.5,15z"/>
	</g>
	<g>
		<path d="M12.5,25h7c0.276,0,0.5-0.224,0.5-0.5S19.776,24,19.5,24h-7c-0.276,0-0.5,0.224-0.5,0.5S12.224,25,12.5,25z"/>
	</g>
</g>
</svg>
