<?xml version="1.0" encoding="utf-8"?>
<!-- Generator: Adobe Illustrator 17.0.0, SVG Export Plug-In . SVG Version: 6.00 Build 0)  -->
<!DOCTYPE svg PUBLIC "-//W3C//DTD SVG 1.1//EN" "http://www.w3.org/Graphics/SVG/1.1/DTD/svg11.dtd">
<svg version="1.1" id="Layer_3" xmlns="http://www.w3.org/2000/svg" xmlns:xlink="http://www.w3.org/1999/xlink" x="0px" y="0px"
	 width="32px" height="32px" viewBox="0 0 32 32" enable-background="new 0 0 32 32" xml:space="preserve" style="fill:#fff">
<g>
	<path d="M15.975,30L15.975,30c-0.754,0-1.476-0.186-2.034-0.524C13.351,29.098,0,20.45,0.001,12.011C0.002,7.381,3.881,2,8.879,2
		c2.826,0,5.471,1.319,7.126,3.463C17.66,3.319,20.307,2,23.135,2c4.993,0,8.866,5.381,8.866,10.011
		c0,8.44-13.357,17.067-13.926,17.431C17.494,29.804,16.751,30,15.975,30z M8.879,4C5.07,4,2.002,8.382,2.001,12.011
		C2,19.368,14.867,27.695,14.997,27.778c0.456,0.275,1.514,0.283,2.011-0.028c0.121-0.077,12.993-8.392,12.993-15.739
		C30.001,8.382,26.938,4,23.135,4c-2.659,0-5.105,1.486-6.231,3.786c-0.336,0.686-1.461,0.686-1.797,0C13.98,5.486,11.536,4,8.879,4
		z"/>
</g>
</svg>
